<svg width="64" height="64" viewBox="0 0 64 64" fill="none" xmlns="http://www.w3.org/2000/svg">
  <!-- Sun base -->
  <rect x="12" y="12" width="40" height="40" fill="#FFC107" rx="4" />
  <rect x="12" y="12" width="40" height="40" fill="#FFC107" rx="4" transform="rotate(45 32 32)" />
  
  <!-- Sun circle -->
  <circle cx="32" cy="32" r="18" fill="#FFD54F" />
  
  <!-- "G" text -->
  <text x="32" y="42" font-family="Arial, sans-serif" font-size="28" font-weight="bold" fill="white" text-anchor="middle">G</text>
  
  <!-- Cloud -->
  <path d="M42 40C42 36.6863 44.6863 34 48 34C51.3137 34 54 36.6863 54 40C54 40.345 53.9709 40.6831 53.9148 41.0118C56.2848 41.4883 58 43.5413 58 46C58 48.7614 55.7614 51 53 51H43C40.2386 51 38 48.7614 38 46C38 43.2386 40.2386 41 43 41C43.345 41 43.6831 41.0291 44.0118 41.0852C42.7533 40.1264 42 38.6548 42 37C42 34.2386 44.2386 32 47 32C49.7614 32 52 34.2386 52 37C52 37.345 51.9709 37.6831 51.9148 38.0118C53.2848 38.4883 55 40.5413 55 43C55 45.7614 52.7614 48 50 48H43C40.2386 48 38 45.7614 38 43C38 40.2386 40.2386 38 43 38C43.345 38 43.6831 38.0291 44.0118 38.0852C42.7533 37.1264 42 35.6548 42 34C42 31.2386 44.2386 29 47 29C49.7614 29 52 31.2386 52 34C52 34.345 51.9709 34.6831 51.9148 35.0118C53.2848 35.4883 55 37.5413 55 40C55 42.7614 52.7614 45 50 45H43C40.2386 45 38 42.7614 38 40C38 37.2386 40.2386 35 43 35C43.345 35 43.6831 35.0291 44.0118 35.0852C42.7533 34.1264 42 32.6548 42 31C42 28.2386 44.2386 26 47 26C49.7614 26 52 28.2386 52 31C52 31.345 51.9709 31.6831 51.9148 32.0118C53.2848 32.4883 55 34.5413 55 37C55 39.7614 52.7614 42 50 42H43C40.2386 42 38 39.7614 38 37C38 34.2386 40.2386 32 43 32C43.345 32 43.6831 32.0291 44.0118 32.0852C42.7533 31.1264 42 29.6548 42 28C42 25.2386 44.2386 23 47 23C49.7614 23 52 25.2386 52 28C52 28.345 51.9709 28.6831 51.9148 29.0118C53.2848 29.4883 55 31.5413 55 34C55 36.7614 52.7614 39 50 39H43C40.2386 39 38 36.7614 38 34C38 31.2386 40.2386 29 43 29C43.345 29 43.6831 29.0291 44.0118 29.0852C42.7533 28.1264 42 26.6548 42 25C42 22.2386 44.2386 20 47 20C49.7614 20 52 22.2386 52 25C52 25.345 51.9709 25.6831 51.9148 26.0118C53.2848 26.4883 55 28.5413 55 31C55 33.7614 52.7614 36 50 36H43C40.2386 36 38 33.7614 38 31C38 28.2386 40.2386 26 43 26C43.345 26 43.6831 26.0291 44.0118 26.0852C42.7533 25.1264 42 23.6548 42 22C42 19.2386 44.2386 17 47 17C49.7614 17 52 19.2386 52 22C52 22.345 51.9709 22.6831 51.9148 23.0118C53.2848 23.4883 55 25.5413 55 28C55 30.7614 52.7614 33 50 33H43C40.2386 33 38 30.7614 38 28C38 25.2386 40.2386 23 43 23C43.345 23 43.6831 23.0291 44.0118 23.0852C42.7533 22.1264 42 20.6548 42 19C42 16.2386 44.2386 14 47 14C49.7614 14 52 16.2386 52 19C52 19.345 51.9709 19.6831 51.9148 20.0118C53.2848 20.4883 55 22.5413 55 25C55 27.7614 52.7614 30 50 30H43C40.2386 30 38 27.7614 38 25C38 22.2386 40.2386 20 43 20C43.345 20 43.6831 20.0291 44.0118 20.0852C42.7533 19.1264 42 17.6548 42 16C42 13.2386 44.2386 11 47 11C49.7614 11 52 13.2386 52 16C52 16.345 51.9709 16.6831 51.9148 17.0118C53.2848 17.4883 55 19.5413 55 22C55 24.7614 52.7614 27 50 27H43C40.2386 27 38 24.7614 38 22C38 19.2386 40.2386 17 43 17C43.345 17 43.6831 17.0291 44.0118 17.0852C42.7533 16.1264 42 14.6548 42 13C42 10.2386 44.2386 8 47 8C49.7614 8 52 10.2386 52 13C52 13.345 51.9709 13.6831 51.9148 14.0118C53.2848 14.4883 55 16.5413 55 19C55 21.7614 52.7614 24 50 24H43C40.2386 24 38 21.7614 38 19C38 16.2386 40.2386 14 43 14C43.345 14 43.6831 14.0291 44.0118 14.0852C42.7533 13.1264 42 11.6548 42 10C42 7.2386 44.2386 5 47 5C49.7614 5 52 7.2386 52 10C52 10.345 51.9709 10.6831 51.9148 11.0118C53.2848 11.4883 55 13.5413 55 16C55 18.7614 52.7614 21 50 21H43C40.2386 21 38 18.7614 38 16C38 13.2386 40.2386 11 43 11C43.345 11 43.6831 11.0291 44.0118 11.0852C42.7533 10.1264 42 8.6548 42 7C42 4.2386 44.2386 2 47 2C49.7614 2 52 4.2386 52 7C52 7.345 51.9709 7.6831 51.9148 8.0118C53.2848 8.4883 55 10.5413 55 13C55 15.7614 52.7614 18 50 18H43C40.2386 18 38 15.7614 38 13C38 10.2386 40.2386 8 43 8C43.345 8 43.6831 8.0291 44.0118 8.0852" fill="white" />
</svg>
